<svg width="176" height="177" viewBox="0 0 176 177" fill="none" xmlns="http://www.w3.org/2000/svg">
<rect width="176" height="177" rx="22" fill="white"/>
<mask id="mask0_236_434" style="mask-type:alpha" maskUnits="userSpaceOnUse" x="0" y="0" width="176" height="177">
<rect width="176" height="177" fill="white"/>
</mask>
<g mask="url(#mask0_236_434)">
<path d="M107.197 57.9973H69.0433C62.8919 57.9973 57.9053 62.9845 57.9053 69.1366V107.295C57.9053 113.447 62.8919 118.434 69.0433 118.434H107.197C113.348 118.434 118.335 113.447 118.335 107.295V69.1366C118.335 62.9845 113.348 57.9973 107.197 57.9973Z" fill="#5076F6"/>
<path d="M156.547 9.70702C162.102 9.70702 166.619 14.225 166.619 19.7798V156.652C166.619 162.206 162.102 166.724 156.547 166.724H19.6927C14.1386 166.724 9.62119 162.206 9.62119 156.652V19.7798C9.62119 14.225 14.1386 9.70702 19.6927 9.70702H156.547ZM156.547 -0.662048H19.6927C8.40372 -0.662048 -0.746582 8.48941 -0.746582 19.7798V156.652C-0.746582 167.942 8.40372 177.093 19.6927 177.093H156.547C167.836 177.093 176.987 167.942 176.987 156.652V19.7798C176.987 8.48941 167.836 -0.662048 156.547 -0.662048Z" fill="#5076F6"/>
<path d="M41.0859 77.106H9.91738C7.87344 77.106 6.2146 75.447 6.2146 73.4028C6.2146 71.3586 7.87344 69.6995 9.91738 69.6995H41.0859C43.1298 69.6995 44.7886 71.3586 44.7886 73.4028C44.7886 75.447 43.1298 77.106 41.0859 77.106Z" fill="#5076F6"/>
<path d="M43.5712 80.3293C47.3962 80.3293 50.4969 77.2282 50.4969 73.4027C50.4969 69.5773 47.3962 66.4762 43.5712 66.4762C39.7463 66.4762 36.6455 69.5773 36.6455 73.4027C36.6455 77.2282 39.7463 80.3293 43.5712 80.3293Z" fill="#5076F6"/>
<path d="M41.0859 106.732H9.91738C7.87344 106.732 6.2146 105.073 6.2146 103.029C6.2146 100.984 7.87344 99.3254 9.91738 99.3254H41.0859C43.1298 99.3254 44.7886 100.984 44.7886 103.029C44.7886 105.073 43.1298 106.732 41.0859 106.732Z" fill="#5076F6"/>
<path d="M44.1637 109.955C47.9887 109.955 51.0894 106.854 51.0894 103.029C51.0894 99.2032 47.9887 96.1021 44.1637 96.1021C40.3388 96.1021 37.238 99.2032 37.238 103.029C37.238 106.854 40.3388 109.955 44.1637 109.955Z" fill="#5076F6"/>
<path d="M168.1 77.106H136.932C134.888 77.106 133.229 75.447 133.229 73.4028C133.229 71.3586 134.888 69.6995 136.932 69.6995H168.1C170.144 69.6995 171.803 71.3586 171.803 73.4028C171.803 75.447 170.144 77.106 168.1 77.106Z" fill="#5076F6"/>
<path d="M132.073 80.3293C135.898 80.3293 138.999 77.2282 138.999 73.4027C138.999 69.5773 135.898 66.4762 132.073 66.4762C128.248 66.4762 125.148 69.5773 125.148 73.4027C125.148 77.2282 128.248 80.3293 132.073 80.3293Z" fill="#5076F6"/>
<path d="M168.1 106.732H136.932C134.888 106.732 133.229 105.073 133.229 103.029C133.229 100.984 134.888 99.3254 136.932 99.3254H168.1C170.144 99.3254 171.803 100.984 171.803 103.029C171.803 105.073 170.144 106.732 168.1 106.732Z" fill="#5076F6"/>
<path d="M132.073 109.955C135.898 109.955 138.999 106.854 138.999 103.029C138.999 99.2032 135.898 96.1021 132.073 96.1021C128.248 96.1021 125.148 99.2032 125.148 103.029C125.148 106.854 128.248 109.955 132.073 109.955Z" fill="#5076F6"/>
<path d="M102.487 171.761C100.443 171.761 98.7839 170.102 98.7839 168.058V147.468C98.7839 145.423 100.443 143.764 102.487 143.764C104.531 143.764 106.189 145.423 106.189 147.468V168.058C106.189 170.102 104.531 171.761 102.487 171.761Z" fill="#5076F6"/>
<path d="M102.487 154.358C106.312 154.358 109.412 151.257 109.412 147.432C109.412 143.607 106.312 140.505 102.487 140.505C98.6617 140.505 95.561 143.607 95.561 147.432C95.561 151.257 98.6617 154.358 102.487 154.358Z" fill="#5076F6"/>
<path d="M132.109 171.761C130.065 171.761 128.406 170.102 128.406 168.058V147.468C128.406 145.423 130.065 143.764 132.109 143.764C134.153 143.764 135.812 145.423 135.812 147.468V168.058C135.812 170.102 134.153 171.761 132.109 171.761Z" fill="#5076F6"/>
<path d="M132.109 154.358C135.934 154.358 139.035 151.257 139.035 147.432C139.035 143.607 135.934 140.505 132.109 140.505C128.284 140.505 125.183 143.607 125.183 147.432C125.183 151.257 128.284 154.358 132.109 154.358Z" fill="#5076F6"/>
<path d="M102.635 32.6671C100.591 32.6671 98.9321 31.008 98.9321 28.9639V4.96685C98.9321 2.92266 100.591 1.26361 102.635 1.26361C104.679 1.26361 106.338 2.92266 106.338 4.96685V28.9639C106.338 31.008 104.679 32.6671 102.635 32.6671Z" fill="#5076F6"/>
<path d="M103.079 35.926C106.904 35.926 110.005 32.8248 110.005 28.9994C110.005 25.174 106.904 22.0729 103.079 22.0729C99.2543 22.0729 96.1536 25.174 96.1536 28.9994C96.1536 32.8248 99.2543 35.926 103.079 35.926Z" fill="#5076F6"/>
<path d="M73.0128 40.6661C70.9689 40.6661 69.3101 39.0071 69.3101 36.9629V6.74444C69.3101 4.70025 70.9689 3.0412 73.0128 3.0412C75.0568 3.0412 76.7156 4.70025 76.7156 6.74444V36.9629C76.7156 39.0071 75.0568 40.6661 73.0128 40.6661Z" fill="#5076F6"/>
<path d="M72.8646 43.925C76.6895 43.925 79.7903 40.8239 79.7903 36.9984C79.7903 33.173 76.6895 30.0719 72.8646 30.0719C69.0397 30.0719 65.939 33.173 65.939 36.9984C65.939 40.8239 69.0397 43.925 72.8646 43.925Z" fill="#5076F6"/>
<path d="M59.5375 147.432C63.3624 147.432 66.4632 144.331 66.4632 140.505C66.4632 136.68 63.3624 133.579 59.5375 133.579C55.7125 133.579 52.6118 136.68 52.6118 140.505C52.6118 144.331 55.7125 147.432 59.5375 147.432Z" fill="#5076F6"/>
<path d="M32.8538 175.375C32.7827 175.375 32.7087 175.375 32.6376 175.369C30.5966 175.251 29.0355 173.5 29.154 171.459C30.176 153.748 38.3102 145.246 44.9545 141.231C52.2001 136.853 59.2442 136.802 59.5404 136.802C61.5844 136.802 63.2432 138.461 63.2432 140.505C63.2432 142.55 61.5933 144.2 59.5553 144.209C58.637 144.218 38.1118 144.775 36.5477 171.885C36.4352 173.855 34.803 175.375 32.8538 175.375Z" fill="#5076F6"/>
<path d="M40.7245 8.69973C36.9625 8.69973 33.9114 5.64826 33.9114 1.88577V-16.186C33.9114 -19.9485 36.9625 -23 40.7245 -23C44.4865 -23 47.5376 -19.9485 47.5376 -16.186V1.88577C47.5376 5.64826 44.4865 8.69973 40.7245 8.69973Z" fill="#5076F6"/>
<path d="M64.4222 8.69973C60.6602 8.69973 57.6091 5.64826 57.6091 1.88577V-16.186C57.6091 -19.9485 60.6602 -23 64.4222 -23C68.1843 -23 71.2353 -19.9485 71.2353 -16.186V1.88577C71.2353 5.64826 68.1843 8.69973 64.4222 8.69973Z" fill="#5076F6"/>
<path d="M111.818 8.69973C108.056 8.69973 105.005 5.64826 105.005 1.88577V-16.186C105.005 -19.9485 108.056 -23 111.818 -23C115.58 -23 118.631 -19.9485 118.631 -16.186V1.88577C118.631 5.64826 115.58 8.69973 111.818 8.69973Z" fill="#5076F6"/>
<path d="M135.515 8.69973C131.753 8.69973 128.702 5.64826 128.702 1.88577V-16.186C128.702 -19.9485 131.753 -23 135.515 -23C139.278 -23 142.329 -19.9485 142.329 -16.186V1.88577C142.329 5.64826 139.278 8.69973 135.515 8.69973Z" fill="#5076F6"/>
<path d="M88.12 8.69973C84.358 8.69973 81.3069 5.64826 81.3069 1.88577V-16.186C81.3069 -19.9485 84.358 -23 88.12 -23C91.882 -23 94.9331 -19.9485 94.9331 -16.186V1.88577C94.9331 5.64826 91.882 8.69973 88.12 8.69973Z" fill="#5076F6"/>
<path d="M40.7245 199.431C36.9625 199.431 33.9114 196.38 33.9114 192.617V174.546C33.9114 170.783 36.9625 167.732 40.7245 167.732C44.4865 167.732 47.5376 170.783 47.5376 174.546V192.617C47.5376 196.38 44.4865 199.431 40.7245 199.431Z" fill="#5076F6"/>
<path d="M64.4222 199.431C60.6602 199.431 57.6091 196.38 57.6091 192.617V174.546C57.6091 170.783 60.6602 167.732 64.4222 167.732C68.1843 167.732 71.2353 170.783 71.2353 174.546V192.617C71.2353 196.38 68.1843 199.431 64.4222 199.431Z" fill="#5076F6"/>
<path d="M111.818 199.431C108.056 199.431 105.005 196.38 105.005 192.617V174.546C105.005 170.783 108.056 167.732 111.818 167.732C115.58 167.732 118.631 170.783 118.631 174.546V192.617C118.631 196.38 115.58 199.431 111.818 199.431Z" fill="#5076F6"/>
<path d="M135.515 199.431C131.753 199.431 128.702 196.38 128.702 192.617V174.546C128.702 170.783 131.753 167.732 135.515 167.732C139.278 167.732 142.329 170.783 142.329 174.546V192.617C142.329 196.38 139.278 199.431 135.515 199.431Z" fill="#5076F6"/>
<path d="M88.12 199.431C84.358 199.431 81.3069 196.38 81.3069 192.617V174.546C81.3069 170.783 84.358 167.732 88.12 167.732C91.882 167.732 94.9331 170.783 94.9331 174.546V192.617C94.9331 196.38 91.882 199.431 88.12 199.431Z" fill="#5076F6"/>
<path d="M191.798 142.431H173.728C169.966 142.431 166.915 139.38 166.915 135.617C166.915 131.855 169.966 128.803 173.728 128.803H191.798C195.56 128.803 198.611 131.855 198.611 135.617C198.611 139.38 195.56 142.431 191.798 142.431Z" fill="#5076F6"/>
<path d="M191.798 118.73H173.728C169.966 118.73 166.915 115.679 166.915 111.916C166.915 108.154 169.966 105.102 173.728 105.102H191.798C195.56 105.102 198.611 108.154 198.611 111.916C198.611 115.679 195.56 118.73 191.798 118.73Z" fill="#5076F6"/>
<path d="M191.798 71.3289H173.728C169.966 71.3289 166.915 68.2774 166.915 64.515C166.915 60.7525 169.966 57.701 173.728 57.701H191.798C195.56 57.701 198.611 60.7525 198.611 64.515C198.611 68.2774 195.56 71.3289 191.798 71.3289Z" fill="#5076F6"/>
<path d="M191.798 47.6282H173.728C169.966 47.6282 166.915 44.5767 166.915 40.8142C166.915 37.0517 169.966 34.0002 173.728 34.0002H191.798C195.56 34.0002 198.611 37.0517 198.611 40.8142C198.611 44.5767 195.56 47.6282 191.798 47.6282Z" fill="#5076F6"/>
<path d="M191.798 95.0297H173.728C169.966 95.0297 166.915 91.9782 166.915 88.2157C166.915 84.4532 169.966 81.4017 173.728 81.4017H191.798C195.56 81.4017 198.611 84.4532 198.611 88.2157C198.611 91.9782 195.56 95.0297 191.798 95.0297Z" fill="#5076F6"/>
<path d="M0.882617 142.431H-17.1869C-20.9489 142.431 -24 139.38 -24 135.617C-24 131.855 -20.9489 128.803 -17.1869 128.803H0.882617C4.64464 128.803 7.69572 131.855 7.69572 135.617C7.69572 139.38 4.64464 142.431 0.882617 142.431Z" fill="#5076F6"/>
<path d="M0.882617 118.73H-17.1869C-20.9489 118.73 -24 115.679 -24 111.916C-24 108.154 -20.9489 105.102 -17.1869 105.102H0.882617C4.64464 105.102 7.69572 108.154 7.69572 111.916C7.69572 115.679 4.64464 118.73 0.882617 118.73Z" fill="#5076F6"/>
<path d="M0.882617 71.3289H-17.1869C-20.9489 71.3289 -24 68.2774 -24 64.515C-24 60.7525 -20.9489 57.701 -17.1869 57.701H0.882617C4.64464 57.701 7.69572 60.7525 7.69572 64.515C7.69572 68.2774 4.64464 71.3289 0.882617 71.3289Z" fill="#5076F6"/>
<path d="M0.882617 47.6282H-17.1869C-20.9489 47.6282 -24 44.5767 -24 40.8142C-24 37.0517 -20.9489 34.0002 -17.1869 34.0002H0.882617C4.64464 34.0002 7.69572 37.0517 7.69572 40.8142C7.69572 44.5767 4.64464 47.6282 0.882617 47.6282Z" fill="#5076F6"/>
<path d="M0.882617 95.0297H-17.1869C-20.9489 95.0297 -24 91.9782 -24 88.2157C-24 84.4532 -20.9489 81.4017 -17.1869 81.4017H0.882617C4.64464 81.4017 7.69572 84.4532 7.69572 88.2157C7.69572 91.9782 4.64464 95.0297 0.882617 95.0297Z" fill="#5076F6"/>
</g>
</svg>
