<svg width="257" height="256" viewBox="0 0 257 256" fill="none" xmlns="http://www.w3.org/2000/svg">
<rect width="257" height="256" fill="white"/>
<path d="M148.197 97.9973H110.043C103.892 97.9973 98.9053 102.985 98.9053 109.137V147.295C98.9053 153.447 103.892 158.434 110.043 158.434H148.197C154.348 158.434 159.335 153.447 159.335 147.295V109.137C159.335 102.985 154.348 97.9973 148.197 97.9973Z" fill="#5076F6"/>
<path d="M197.547 49.707C203.102 49.707 207.619 54.225 207.619 59.7798V196.652C207.619 202.206 203.102 206.724 197.547 206.724H60.6927C55.1386 206.724 50.6212 202.206 50.6212 196.652V59.7798C50.6212 54.225 55.1386 49.707 60.6927 49.707H197.547ZM197.547 39.338H60.6927C49.4037 39.338 40.2534 48.4894 40.2534 59.7798V196.652C40.2534 207.942 49.4037 217.093 60.6927 217.093H197.547C208.836 217.093 217.987 207.942 217.987 196.652V59.7798C217.987 48.4894 208.836 39.338 197.547 39.338Z" fill="#5076F6"/>
<path d="M82.0859 117.106H50.9174C48.8734 117.106 47.2146 115.447 47.2146 113.403C47.2146 111.359 48.8734 109.7 50.9174 109.7H82.0859C84.1298 109.7 85.7886 111.359 85.7886 113.403C85.7886 115.447 84.1298 117.106 82.0859 117.106Z" fill="#5076F6"/>
<path d="M84.5712 120.329C88.3962 120.329 91.4969 117.228 91.4969 113.403C91.4969 109.577 88.3962 106.476 84.5712 106.476C80.7463 106.476 77.6455 109.577 77.6455 113.403C77.6455 117.228 80.7463 120.329 84.5712 120.329Z" fill="#5076F6"/>
<path d="M82.0859 146.732H50.9174C48.8734 146.732 47.2146 145.073 47.2146 143.029C47.2146 140.984 48.8734 139.325 50.9174 139.325H82.0859C84.1298 139.325 85.7886 140.984 85.7886 143.029C85.7886 145.073 84.1298 146.732 82.0859 146.732Z" fill="#5076F6"/>
<path d="M85.1637 149.955C88.9887 149.955 92.0894 146.854 92.0894 143.029C92.0894 139.203 88.9887 136.102 85.1637 136.102C81.3388 136.102 78.238 139.203 78.238 143.029C78.238 146.854 81.3388 149.955 85.1637 149.955Z" fill="#5076F6"/>
<path d="M209.1 117.106H177.932C175.888 117.106 174.229 115.447 174.229 113.403C174.229 111.359 175.888 109.7 177.932 109.7H209.1C211.144 109.7 212.803 111.359 212.803 113.403C212.803 115.447 211.144 117.106 209.1 117.106Z" fill="#5076F6"/>
<path d="M173.073 120.329C176.898 120.329 179.999 117.228 179.999 113.403C179.999 109.577 176.898 106.476 173.073 106.476C169.248 106.476 166.148 109.577 166.148 113.403C166.148 117.228 169.248 120.329 173.073 120.329Z" fill="#5076F6"/>
<path d="M209.1 146.732H177.932C175.888 146.732 174.229 145.073 174.229 143.029C174.229 140.984 175.888 139.325 177.932 139.325H209.1C211.144 139.325 212.803 140.984 212.803 143.029C212.803 145.073 211.144 146.732 209.1 146.732Z" fill="#5076F6"/>
<path d="M173.073 149.955C176.898 149.955 179.999 146.854 179.999 143.029C179.999 139.203 176.898 136.102 173.073 136.102C169.248 136.102 166.148 139.203 166.148 143.029C166.148 146.854 169.248 149.955 173.073 149.955Z" fill="#5076F6"/>
<path d="M143.487 211.761C141.443 211.761 139.784 210.102 139.784 208.058V187.468C139.784 185.423 141.443 183.764 143.487 183.764C145.531 183.764 147.189 185.423 147.189 187.468V208.058C147.189 210.102 145.531 211.761 143.487 211.761Z" fill="#5076F6"/>
<path d="M143.487 194.358C147.312 194.358 150.412 191.257 150.412 187.432C150.412 183.607 147.312 180.505 143.487 180.505C139.662 180.505 136.561 183.607 136.561 187.432C136.561 191.257 139.662 194.358 143.487 194.358Z" fill="#5076F6"/>
<path d="M173.109 211.761C171.065 211.761 169.406 210.102 169.406 208.058V187.468C169.406 185.423 171.065 183.764 173.109 183.764C175.153 183.764 176.812 185.423 176.812 187.468V208.058C176.812 210.102 175.153 211.761 173.109 211.761Z" fill="#5076F6"/>
<path d="M173.109 194.358C176.934 194.358 180.035 191.257 180.035 187.432C180.035 183.607 176.934 180.505 173.109 180.505C169.284 180.505 166.183 183.607 166.183 187.432C166.183 191.257 169.284 194.358 173.109 194.358Z" fill="#5076F6"/>
<path d="M143.635 72.6671C141.591 72.6671 139.932 71.008 139.932 68.9639V44.9669C139.932 42.9227 141.591 41.2636 143.635 41.2636C145.679 41.2636 147.338 42.9227 147.338 44.9669V68.9639C147.338 71.008 145.679 72.6671 143.635 72.6671Z" fill="#5076F6"/>
<path d="M144.079 75.926C147.904 75.926 151.005 72.8248 151.005 68.9994C151.005 65.174 147.904 62.0729 144.079 62.0729C140.254 62.0729 137.154 65.174 137.154 68.9994C137.154 72.8248 140.254 75.926 144.079 75.926Z" fill="#5076F6"/>
<path d="M114.013 80.6661C111.969 80.6661 110.31 79.0071 110.31 76.9629V46.7444C110.31 44.7003 111.969 43.0412 114.013 43.0412C116.057 43.0412 117.716 44.7003 117.716 46.7444V76.9629C117.716 79.0071 116.057 80.6661 114.013 80.6661Z" fill="#5076F6"/>
<path d="M113.865 83.925C117.69 83.925 120.79 80.8239 120.79 76.9984C120.79 73.173 117.69 70.0719 113.865 70.0719C110.04 70.0719 106.939 73.173 106.939 76.9984C106.939 80.8239 110.04 83.925 113.865 83.925Z" fill="#5076F6"/>
<path d="M100.537 187.432C104.362 187.432 107.463 184.331 107.463 180.505C107.463 176.68 104.362 173.579 100.537 173.579C96.7125 173.579 93.6118 176.68 93.6118 180.505C93.6118 184.331 96.7125 187.432 100.537 187.432Z" fill="#5076F6"/>
<path d="M73.8538 215.375C73.7827 215.375 73.7087 215.375 73.6376 215.369C71.5966 215.251 70.0355 213.5 70.154 211.459C71.176 193.748 79.3102 185.246 85.9545 181.231C93.2001 176.853 100.244 176.802 100.54 176.802C102.584 176.802 104.243 178.461 104.243 180.505C104.243 182.55 102.593 184.2 100.555 184.209C99.637 184.218 79.1118 184.775 77.5477 211.885C77.4352 213.855 75.803 215.375 73.8538 215.375Z" fill="#5076F6"/>
<path d="M81.7245 48.6997C77.9625 48.6997 74.9114 45.6483 74.9114 41.8858V23.814C74.9114 20.0515 77.9625 17 81.7245 17C85.4865 17 88.5376 20.0515 88.5376 23.814V41.8858C88.5376 45.6483 85.4865 48.6997 81.7245 48.6997Z" fill="#5076F6"/>
<path d="M105.422 48.6997C101.66 48.6997 98.6091 45.6483 98.6091 41.8858V23.814C98.6091 20.0515 101.66 17 105.422 17C109.184 17 112.235 20.0515 112.235 23.814V41.8858C112.235 45.6483 109.184 48.6997 105.422 48.6997Z" fill="#5076F6"/>
<path d="M152.818 48.6997C149.056 48.6997 146.005 45.6483 146.005 41.8858V23.814C146.005 20.0515 149.056 17 152.818 17C156.58 17 159.631 20.0515 159.631 23.814V41.8858C159.631 45.6483 156.58 48.6997 152.818 48.6997Z" fill="#5076F6"/>
<path d="M176.515 48.6997C172.753 48.6997 169.702 45.6483 169.702 41.8858V23.814C169.702 20.0515 172.753 17 176.515 17C180.278 17 183.329 20.0515 183.329 23.814V41.8858C183.329 45.6483 180.278 48.6997 176.515 48.6997Z" fill="#5076F6"/>
<path d="M129.12 48.6997C125.358 48.6997 122.307 45.6483 122.307 41.8858V23.814C122.307 20.0515 125.358 17 129.12 17C132.882 17 135.933 20.0515 135.933 23.814V41.8858C135.933 45.6483 132.882 48.6997 129.12 48.6997Z" fill="#5076F6"/>
<path d="M81.7245 239.431C77.9625 239.431 74.9114 236.38 74.9114 232.617V214.546C74.9114 210.783 77.9625 207.732 81.7245 207.732C85.4865 207.732 88.5376 210.783 88.5376 214.546V232.617C88.5376 236.38 85.4865 239.431 81.7245 239.431Z" fill="#5076F6"/>
<path d="M105.422 239.431C101.66 239.431 98.6091 236.38 98.6091 232.617V214.546C98.6091 210.783 101.66 207.732 105.422 207.732C109.184 207.732 112.235 210.783 112.235 214.546V232.617C112.235 236.38 109.184 239.431 105.422 239.431Z" fill="#5076F6"/>
<path d="M152.818 239.431C149.056 239.431 146.005 236.38 146.005 232.617V214.546C146.005 210.783 149.056 207.732 152.818 207.732C156.58 207.732 159.631 210.783 159.631 214.546V232.617C159.631 236.38 156.58 239.431 152.818 239.431Z" fill="#5076F6"/>
<path d="M176.515 239.431C172.753 239.431 169.702 236.38 169.702 232.617V214.546C169.702 210.783 172.753 207.732 176.515 207.732C180.278 207.732 183.329 210.783 183.329 214.546V232.617C183.329 236.38 180.278 239.431 176.515 239.431Z" fill="#5076F6"/>
<path d="M129.12 239.431C125.358 239.431 122.307 236.38 122.307 232.617V214.546C122.307 210.783 125.358 207.732 129.12 207.732C132.882 207.732 135.933 210.783 135.933 214.546V232.617C135.933 236.38 132.882 239.431 129.12 239.431Z" fill="#5076F6"/>
<path d="M232.798 182.431H214.728C210.966 182.431 207.915 179.38 207.915 175.617C207.915 171.855 210.966 168.803 214.728 168.803H232.798C236.56 168.803 239.611 171.855 239.611 175.617C239.611 179.38 236.56 182.431 232.798 182.431Z" fill="#5076F6"/>
<path d="M232.798 158.73H214.728C210.966 158.73 207.915 155.679 207.915 151.916C207.915 148.154 210.966 145.102 214.728 145.102H232.798C236.56 145.102 239.611 148.154 239.611 151.916C239.611 155.679 236.56 158.73 232.798 158.73Z" fill="#5076F6"/>
<path d="M232.798 111.329H214.728C210.966 111.329 207.915 108.277 207.915 104.515C207.915 100.752 210.966 97.701 214.728 97.701H232.798C236.56 97.701 239.611 100.752 239.611 104.515C239.611 108.277 236.56 111.329 232.798 111.329Z" fill="#5076F6"/>
<path d="M232.798 87.6282H214.728C210.966 87.6282 207.915 84.5767 207.915 80.8142C207.915 77.0517 210.966 74.0002 214.728 74.0002H232.798C236.56 74.0002 239.611 77.0517 239.611 80.8142C239.611 84.5767 236.56 87.6282 232.798 87.6282Z" fill="#5076F6"/>
<path d="M232.798 135.03H214.728C210.966 135.03 207.915 131.978 207.915 128.216C207.915 124.453 210.966 121.402 214.728 121.402H232.798C236.56 121.402 239.611 124.453 239.611 128.216C239.611 131.978 236.56 135.03 232.798 135.03Z" fill="#5076F6"/>
<path d="M41.8826 182.431H23.8131C20.0511 182.431 17 179.38 17 175.617C17 171.855 20.0511 168.803 23.8131 168.803H41.8826C45.6446 168.803 48.6957 171.855 48.6957 175.617C48.6957 179.38 45.6446 182.431 41.8826 182.431Z" fill="#5076F6"/>
<path d="M41.8826 158.73H23.8131C20.0511 158.73 17 155.679 17 151.916C17 148.154 20.0511 145.102 23.8131 145.102H41.8826C45.6446 145.102 48.6957 148.154 48.6957 151.916C48.6957 155.679 45.6446 158.73 41.8826 158.73Z" fill="#5076F6"/>
<path d="M41.8826 111.329H23.8131C20.0511 111.329 17 108.277 17 104.515C17 100.752 20.0511 97.701 23.8131 97.701H41.8826C45.6446 97.701 48.6957 100.752 48.6957 104.515C48.6957 108.277 45.6446 111.329 41.8826 111.329Z" fill="#5076F6"/>
<path d="M41.8826 87.6282H23.8131C20.0511 87.6282 17 84.5767 17 80.8142C17 77.0517 20.0511 74.0002 23.8131 74.0002H41.8826C45.6446 74.0002 48.6957 77.0517 48.6957 80.8142C48.6957 84.5767 45.6446 87.6282 41.8826 87.6282Z" fill="#5076F6"/>
<path d="M41.8826 135.03H23.8131C20.0511 135.03 17 131.978 17 128.216C17 124.453 20.0511 121.402 23.8131 121.402H41.8826C45.6446 121.402 48.6957 124.453 48.6957 128.216C48.6957 131.978 45.6446 135.03 41.8826 135.03Z" fill="#5076F6"/>
</svg>
