<svg width="78" height="78" viewBox="0 0 78 78" fill="none" xmlns="http://www.w3.org/2000/svg">
<path d="M45.8433 28.3026H32.5115C30.3621 28.3026 28.6196 30.0453 28.6196 32.195V45.5284C28.6196 47.6781 30.3621 49.4208 32.5115 49.4208H45.8433C47.9928 49.4208 49.7352 47.6781 49.7352 45.5284V32.195C49.7352 30.0453 47.9928 28.3026 45.8433 28.3026Z" fill="#5076F6"/>
<path d="M63.0881 11.4287C65.0289 11.4287 66.6074 13.0074 66.6074 14.9484V62.775C66.6074 64.716 65.0289 66.2947 63.0881 66.2947H15.2675C13.3268 66.2947 11.7483 64.716 11.7483 62.775V14.9484C11.7483 13.0074 13.3268 11.4287 15.2675 11.4287H63.0881ZM63.0881 7.80547H15.2675C11.3228 7.80547 8.12549 11.0032 8.12549 14.9484V62.775C8.12549 66.7202 11.3228 69.9179 15.2675 69.9179H63.0881C67.0328 69.9179 70.2302 66.7202 70.2302 62.775V14.9484C70.2302 11.0032 67.0328 7.80547 63.0881 7.80547Z" fill="#5076F6"/>
<path d="M22.7426 34.9797H11.8515C11.1373 34.9797 10.5576 34.4 10.5576 33.6857C10.5576 32.9714 11.1373 32.3916 11.8515 32.3916H22.7426C23.4568 32.3916 24.0364 32.9714 24.0364 33.6857C24.0364 34.4 23.4568 34.9797 22.7426 34.9797Z" fill="#5076F6"/>
<path d="M23.6109 36.106C24.9475 36.106 26.0309 35.0224 26.0309 33.6857C26.0309 32.349 24.9475 31.2654 23.6109 31.2654C22.2744 31.2654 21.1909 32.349 21.1909 33.6857C21.1909 35.0224 22.2744 36.106 23.6109 36.106Z" fill="#5076F6"/>
<path d="M22.7426 45.3317H11.8515C11.1373 45.3317 10.5576 44.752 10.5576 44.0377C10.5576 43.3234 11.1373 42.7437 11.8515 42.7437H22.7426C23.4568 42.7437 24.0364 43.3234 24.0364 44.0377C24.0364 44.752 23.4568 45.3317 22.7426 45.3317Z" fill="#5076F6"/>
<path d="M23.818 46.4581C25.1545 46.4581 26.238 45.3745 26.238 44.0378C26.238 42.7011 25.1545 41.6174 23.818 41.6174C22.4814 41.6174 21.3979 42.7011 21.3979 44.0378C21.3979 45.3745 22.4814 46.4581 23.818 46.4581Z" fill="#5076F6"/>
<path d="M67.1249 34.9797H56.2338C55.5196 34.9797 54.9399 34.4 54.9399 33.6857C54.9399 32.9714 55.5196 32.3916 56.2338 32.3916H67.1249C67.8391 32.3916 68.4187 32.9714 68.4187 33.6857C68.4187 34.4 67.8391 34.9797 67.1249 34.9797Z" fill="#5076F6"/>
<path d="M54.5362 36.106C55.8728 36.106 56.9562 35.0224 56.9562 33.6857C56.9562 32.349 55.8728 31.2654 54.5362 31.2654C53.1997 31.2654 52.1162 32.349 52.1162 33.6857C52.1162 35.0224 53.1997 36.106 54.5362 36.106Z" fill="#5076F6"/>
<path d="M67.1249 45.3317H56.2338C55.5196 45.3317 54.9399 44.752 54.9399 44.0377C54.9399 43.3234 55.5196 42.7437 56.2338 42.7437H67.1249C67.8391 42.7437 68.4187 43.3234 68.4187 44.0377C68.4187 44.752 67.8391 45.3317 67.1249 45.3317Z" fill="#5076F6"/>
<path d="M54.5362 46.4581C55.8728 46.4581 56.9562 45.3745 56.9562 44.0377C56.9562 42.701 55.8728 41.6174 54.5362 41.6174C53.1997 41.6174 52.1162 42.701 52.1162 44.0377C52.1162 45.3745 53.1997 46.4581 54.5362 46.4581Z" fill="#5076F6"/>
<path d="M44.1977 68.0546C43.4835 68.0546 42.9038 67.4748 42.9038 66.7606V59.5659C42.9038 58.8516 43.4835 58.2719 44.1977 58.2719C44.9119 58.2719 45.4915 58.8516 45.4915 59.5659V66.7606C45.4915 67.4748 44.9119 68.0546 44.1977 68.0546Z" fill="#5076F6"/>
<path d="M44.1978 61.9737C45.5344 61.9737 46.6179 60.8901 46.6179 59.5534C46.6179 58.2167 45.5344 57.1331 44.1978 57.1331C42.8613 57.1331 41.7778 58.2167 41.7778 59.5534C41.7778 60.8901 42.8613 61.9737 44.1978 61.9737Z" fill="#5076F6"/>
<path d="M54.5487 68.0546C53.8345 68.0546 53.2549 67.4748 53.2549 66.7606V59.5659C53.2549 58.8516 53.8345 58.2719 54.5487 58.2719C55.2629 58.2719 55.8426 58.8516 55.8426 59.5659V66.7606C55.8426 67.4748 55.2629 68.0546 54.5487 68.0546Z" fill="#5076F6"/>
<path d="M54.5489 61.9737C55.8854 61.9737 56.9689 60.8901 56.9689 59.5534C56.9689 58.2167 55.8854 57.1331 54.5489 57.1331C53.2124 57.1331 52.1289 58.2167 52.1289 59.5534C52.1289 60.8901 53.2124 61.9737 54.5489 61.9737Z" fill="#5076F6"/>
<path d="M44.2494 19.4516C43.5352 19.4516 42.9556 18.8718 42.9556 18.1575V9.77236C42.9556 9.05806 43.5352 8.47835 44.2494 8.47835C44.9636 8.47835 45.5433 9.05806 45.5433 9.77236V18.1575C45.5433 18.8718 44.9636 19.4516 44.2494 19.4516Z" fill="#5076F6"/>
<path d="M44.4049 20.5903C45.7414 20.5903 46.8249 19.5067 46.8249 18.17C46.8249 16.8333 45.7414 15.7497 44.4049 15.7497C43.0683 15.7497 41.9849 16.8333 41.9849 18.17C41.9849 19.5067 43.0683 20.5903 44.4049 20.5903Z" fill="#5076F6"/>
<path d="M33.8993 22.2466C33.1851 22.2466 32.6055 21.6669 32.6055 20.9526V10.3935C32.6055 9.67919 33.1851 9.09947 33.8993 9.09947C34.6135 9.09947 35.1932 9.67919 35.1932 10.3935V20.9526C35.1932 21.6669 34.6135 22.2466 33.8993 22.2466Z" fill="#5076F6"/>
<path d="M33.8472 23.3854C35.1838 23.3854 36.2673 22.3017 36.2673 20.965C36.2673 19.6283 35.1838 18.5447 33.8472 18.5447C32.5107 18.5447 31.4272 19.6283 31.4272 20.965C31.4272 22.3017 32.5107 23.3854 33.8472 23.3854Z" fill="#5076F6"/>
<path d="M29.19 59.5534C30.5266 59.5534 31.61 58.4698 31.61 57.1331C31.61 55.7964 30.5266 54.7128 29.19 54.7128C27.8535 54.7128 26.77 55.7964 26.77 57.1331C26.77 58.4698 27.8535 59.5534 29.19 59.5534Z" fill="#5076F6"/>
<path d="M19.8663 69.3175C19.8415 69.3175 19.8156 69.3175 19.7908 69.3155C19.0776 69.2741 18.5321 68.6622 18.5735 67.949C18.9306 61.7605 21.7729 58.7895 24.0946 57.3868C26.6264 55.8567 29.0878 55.8391 29.1913 55.8391C29.9055 55.8391 30.4852 56.4188 30.4852 57.1331C30.4852 57.8474 29.9086 58.424 29.1965 58.4271C28.8756 58.4303 21.7036 58.6249 21.157 68.0981C21.1177 68.7865 20.5474 69.3175 19.8663 69.3175Z" fill="#5076F6"/>
<path d="M22.6165 11.0767C21.302 11.0767 20.2358 10.0105 20.2358 8.69575V2.38098C20.2358 1.06626 21.302 0 22.6165 0C23.9311 0 24.9972 1.06626 24.9972 2.38098V8.69575C24.9972 10.0105 23.9311 11.0767 22.6165 11.0767Z" fill="#5076F6"/>
<path d="M30.8973 11.0767C29.5827 11.0767 28.5166 10.0105 28.5166 8.69575V2.38098C28.5166 1.06626 29.5827 0 30.8973 0C32.2118 0 33.278 1.06626 33.278 2.38098V8.69575C33.278 10.0105 32.2118 11.0767 30.8973 11.0767Z" fill="#5076F6"/>
<path d="M47.4583 11.0767C46.1438 11.0767 45.0776 10.0105 45.0776 8.69575V2.38098C45.0776 1.06626 46.1438 0 47.4583 0C48.7729 0 49.839 1.06626 49.839 2.38098V8.69575C49.839 10.0105 48.7729 11.0767 47.4583 11.0767Z" fill="#5076F6"/>
<path d="M55.7391 11.0767C54.4245 11.0767 53.3584 10.0105 53.3584 8.69575V2.38098C53.3584 1.06626 54.4245 0 55.7391 0C57.0536 0 58.1198 1.06626 58.1198 2.38098V8.69575C58.1198 10.0105 57.0536 11.0767 55.7391 11.0767Z" fill="#5076F6"/>
<path d="M39.1776 11.0767C37.863 11.0767 36.7969 10.0105 36.7969 8.69575V2.38098C36.7969 1.06626 37.863 0 39.1776 0C40.4921 0 41.5582 1.06626 41.5582 2.38098V8.69575C41.5582 10.0105 40.4921 11.0767 39.1776 11.0767Z" fill="#5076F6"/>
<path d="M22.6165 77.7234C21.302 77.7234 20.2358 76.6572 20.2358 75.3425V69.0277C20.2358 67.713 21.302 66.6467 22.6165 66.6467C23.9311 66.6467 24.9972 67.713 24.9972 69.0277V75.3425C24.9972 76.6572 23.9311 77.7234 22.6165 77.7234Z" fill="#5076F6"/>
<path d="M30.8973 77.7234C29.5827 77.7234 28.5166 76.6572 28.5166 75.3425V69.0277C28.5166 67.713 29.5827 66.6467 30.8973 66.6467C32.2118 66.6467 33.278 67.713 33.278 69.0277V75.3425C33.278 76.6572 32.2118 77.7234 30.8973 77.7234Z" fill="#5076F6"/>
<path d="M47.4583 77.7234C46.1438 77.7234 45.0776 76.6572 45.0776 75.3425V69.0277C45.0776 67.713 46.1438 66.6467 47.4583 66.6467C48.7729 66.6467 49.839 67.713 49.839 69.0277V75.3425C49.839 76.6572 48.7729 77.7234 47.4583 77.7234Z" fill="#5076F6"/>
<path d="M55.7391 77.7234C54.4245 77.7234 53.3584 76.6572 53.3584 75.3425V69.0277C53.3584 67.713 54.4245 66.6467 55.7391 66.6467C57.0536 66.6467 58.1198 67.713 58.1198 69.0277V75.3425C58.1198 76.6572 57.0536 77.7234 55.7391 77.7234Z" fill="#5076F6"/>
<path d="M39.1776 77.7234C37.863 77.7234 36.7969 76.6572 36.7969 75.3425V69.0277C36.7969 67.713 37.863 66.6467 39.1776 66.6467C40.4921 66.6467 41.5582 67.713 41.5582 69.0277V75.3425C41.5582 76.6572 40.4921 77.7234 39.1776 77.7234Z" fill="#5076F6"/>
<path d="M75.4051 57.806H69.0911C67.7766 57.806 66.7104 56.7397 66.7104 55.425C66.7104 54.1103 67.7766 53.0441 69.0911 53.0441H75.4051C76.7197 53.0441 77.7858 54.1103 77.7858 55.425C77.7858 56.7397 76.7197 57.806 75.4051 57.806Z" fill="#5076F6"/>
<path d="M75.4051 49.5243H69.0911C67.7766 49.5243 66.7104 48.4581 66.7104 47.1434C66.7104 45.8287 67.7766 44.7624 69.0911 44.7624H75.4051C76.7197 44.7624 77.7858 45.8287 77.7858 47.1434C77.7858 48.4581 76.7197 49.5243 75.4051 49.5243Z" fill="#5076F6"/>
<path d="M75.4051 32.961H69.0911C67.7766 32.961 66.7104 31.8948 66.7104 30.58C66.7104 29.2653 67.7766 28.1991 69.0911 28.1991H75.4051C76.7197 28.1991 77.7858 29.2653 77.7858 30.58C77.7858 31.8948 76.7197 32.961 75.4051 32.961Z" fill="#5076F6"/>
<path d="M75.4056 24.6794H69.0916C67.7771 24.6794 66.7109 23.6131 66.7109 22.2984C66.7109 20.9837 67.7771 19.9174 69.0916 19.9174H75.4056C76.7201 19.9174 77.7863 20.9837 77.7863 22.2984C77.7863 23.6131 76.7201 24.6794 75.4056 24.6794Z" fill="#5076F6"/>
<path d="M75.4051 41.2427H69.0911C67.7766 41.2427 66.7104 40.1764 66.7104 38.8617C66.7104 37.547 67.7766 36.4807 69.0911 36.4807H75.4051C76.7197 36.4807 77.7858 37.547 77.7858 38.8617C77.7858 40.1764 76.7197 41.2427 75.4051 41.2427Z" fill="#5076F6"/>
<path d="M8.69465 57.806H2.38068C1.06613 57.806 0 56.7397 0 55.425C0 54.1103 1.06613 53.0441 2.38068 53.0441H8.69465C10.0092 53.0441 11.0753 54.1103 11.0753 55.425C11.0753 56.7397 10.0092 57.806 8.69465 57.806Z" fill="#5076F6"/>
<path d="M8.69465 49.5243H2.38068C1.06613 49.5243 0 48.4581 0 47.1434C0 45.8287 1.06613 44.7624 2.38068 44.7624H8.69465C10.0092 44.7624 11.0753 45.8287 11.0753 47.1434C11.0753 48.4581 10.0092 49.5243 8.69465 49.5243Z" fill="#5076F6"/>
<path d="M8.69465 32.961H2.38068C1.06613 32.961 0 31.8948 0 30.58C0 29.2653 1.06613 28.1991 2.38068 28.1991H8.69465C10.0092 28.1991 11.0753 29.2653 11.0753 30.58C11.0753 31.8948 10.0092 32.961 8.69465 32.961Z" fill="#5076F6"/>
<path d="M8.69465 24.6794H2.38068C1.06613 24.6794 0 23.6131 0 22.2984C0 20.9837 1.06613 19.9174 2.38068 19.9174H8.69465C10.0092 19.9174 11.0753 20.9837 11.0753 22.2984C11.0753 23.6131 10.0092 24.6794 8.69465 24.6794Z" fill="#5076F6"/>
<path d="M8.69465 41.2427H2.38068C1.06613 41.2427 0 40.1764 0 38.8617C0 37.547 1.06613 36.4807 2.38068 36.4807H8.69465C10.0092 36.4807 11.0753 37.547 11.0753 38.8617C11.0753 40.1764 10.0092 41.2427 8.69465 41.2427Z" fill="#5076F6"/>
</svg>
